# Blender v3.2.0 OBJ File: ''
# www.blender.org
mtllib bedroom.mtl
o nightstand1.001_obj0.001
v 0.155782 0.004301 -0.032738
v 0.395760 -0.216644 -0.016604
v 0.165166 -0.226310 -0.024739
v 0.386376 0.013966 -0.024603
v 0.404218 -0.224301 -0.247262
v 0.394834 0.006310 -0.255261
v 0.173624 -0.233966 -0.255397
v 0.164240 -0.003356 -0.263396
vn 0.0366 -0.0332 -0.9988
vn -0.9985 -0.0419 -0.0352
vn -0.0366 0.0332 0.9988
vn 0.9985 0.0419 0.0352
vn -0.0406 0.9986 -0.0346
vn 0.0406 -0.9986 0.0346
usemtl Default_OBJ
s off
f 1//1 2//1 3//1
f 4//2 5//2 2//2
f 6//3 7//3 5//3
f 8//4 3//4 7//4
f 5//5 3//5 2//5
f 4//6 8//6 6//6
f 1//1 4//1 2//1
f 4//2 6//2 5//2
f 6//3 8//3 7//3
f 8//4 1//4 3//4
f 5//5 7//5 3//5
f 4//6 1//6 8//6
o bed.001_obj1.001
v -0.304699 -0.045665 0.520364
v 0.404699 -0.234335 0.520364
v -0.304699 -0.234335 0.520364
v 0.404699 -0.045665 0.520364
v 0.404699 -0.234335 -0.000364
v 0.404699 -0.045665 -0.000364
v -0.304699 -0.234335 -0.000364
v -0.304699 -0.045665 -0.000364
vn 0.0000 0.0000 -1.0000
vn -1.0000 -0.0000 0.0000
vn 0.0000 -0.0000 1.0000
vn 1.0000 0.0000 0.0000
vn 0.0000 1.0000 0.0000
vn 0.0000 -1.0000 -0.0000
usemtl Default_OBJ
s off
f 9//7 10//7 11//7
f 12//8 13//8 10//8
f 14//9 15//9 13//9
f 16//10 11//10 15//10
f 13//11 11//11 10//11
f 12//12 16//12 14//12
f 9//7 12//7 10//7
f 12//8 14//8 13//8
f 14//9 16//9 15//9
f 16//10 9//10 11//10
f 13//11 15//11 11//11
f 12//12 9//12 16//12
o nightstand2.001_obj2.001
v 0.155782 0.004301 0.757262
v 0.395760 -0.216644 0.773396
v 0.165166 -0.226310 0.765261
v 0.386376 0.013966 0.765397
v 0.404218 -0.224301 0.542738
v 0.394834 0.006310 0.534739
v 0.173624 -0.233967 0.534603
v 0.164240 -0.003356 0.526604
vn 0.0366 -0.0332 -0.9988
vn -0.9985 -0.0419 -0.0352
vn -0.0366 0.0332 0.9988
vn 0.9985 0.0419 0.0352
vn -0.0406 0.9986 -0.0346
vn 0.0406 -0.9986 0.0346
usemtl Default_OBJ
s off
f 17//13 18//13 19//13
f 20//14 21//14 18//14
f 22//15 23//15 21//15
f 24//16 19//16 23//16
f 21//17 19//17 18//17
f 20//18 24//18 22//18
f 17//13 20//13 18//13
f 20//14 22//14 21//14
f 22//15 24//15 23//15
f 24//16 17//16 19//16
f 21//17 23//17 19//17
f 20//18 17//18 24//18
o closet.001_obj3.001
v -0.221263 0.508485 -0.251391
v -0.221263 -0.228485 -0.448609
v -0.221263 -0.228485 -0.251391
v -0.221263 0.508485 -0.448609
v -0.698737 -0.228485 -0.448609
v -0.698737 0.508485 -0.448609
v -0.698737 -0.228485 -0.251391
v -0.698737 0.508485 -0.251391
vn -1.0000 0.0000 0.0000
vn 0.0000 -0.0000 1.0000
vn 1.0000 0.0000 0.0000
vn 0.0000 0.0000 -1.0000
vn 0.0000 1.0000 0.0000
vn 0.0000 -1.0000 0.0000
usemtl Default_OBJ
s off
f 25//19 26//19 27//19
f 28//20 29//20 26//20
f 30//21 31//21 29//21
f 32//22 27//22 31//22
f 29//23 27//23 26//23
f 28//24 32//24 30//24
f 25//19 28//19 26//19
f 28//20 30//20 29//20
f 30//21 32//21 31//21
f 32//22 25//22 27//22
f 29//23 31//23 27//23
f 28//24 25//24 32//24
o room.001_obj4.001
v 0.651153 -0.471153 -0.701153
v 0.651153 -0.471153 1.816994
v 0.651153 2.046994 -0.701153
v 0.651153 2.046994 1.816995
v -1.866994 -0.471153 -0.701153
v -1.866994 2.046994 -0.701153
v -1.866994 -0.219339 1.816994
v -1.866994 -0.471153 1.816994
v -1.866994 -0.219338 -0.449338
v -1.866994 2.046994 -0.449338
v 0.399338 -0.219338 -0.449338
v 0.399338 2.046994 -0.449338
v 0.399338 2.046994 1.816995
v 0.399338 -0.219339 1.816994
vn -1.0000 0.0000 0.0000
vn 0.0000 -0.0000 1.0000
vn 1.0000 0.0000 0.0000
vn 0.0000 0.0000 -1.0000
vn 0.0000 1.0000 0.0000
vn 0.0000 -1.0000 0.0000
usemtl Default_OBJ
s off
f 33//25 34//25 35//25
f 35//25 34//25 36//25
f 37//26 33//26 38//26
f 38//26 33//26 35//26
f 39//27 40//27 41//27
f 41//27 40//27 37//27
f 41//27 37//27 42//27
f 42//27 37//27 38//27
f 41//28 42//28 43//28
f 43//28 42//28 44//28
f 37//29 40//29 33//29
f 33//29 40//29 34//29
f 42//30 38//30 44//30
f 44//30 38//30 35//30
f 44//30 35//30 45//30
f 45//30 35//30 36//30
f 46//30 39//30 43//30
f 43//30 39//30 41//30
f 45//27 46//27 44//27
f 44//27 46//27 43//27
f 45//28 36//28 46//28
f 46//28 36//28 34//28
f 46//28 34//28 39//28
f 39//28 34//28 40//28
